<?xml version="1.0" encoding="utf-8"?>
<!-- Generator: Adobe Illustrator 16.0.0, SVG Export Plug-In . SVG Version: 6.00 Build 0)  -->
<!DOCTYPE svg PUBLIC "-//W3C//DTD SVG 1.1//EN" "http://www.w3.org/Graphics/SVG/1.1/DTD/svg11.dtd">
<svg version="1.1" id="Layer_1" xmlns="http://www.w3.org/2000/svg" xmlns:xlink="http://www.w3.org/1999/xlink" x="0px" y="0px"
	 width="116.778px" height="36.844px" viewBox="0 0 116.778 36.844" enable-background="new 0 0 116.778 36.844"
	 xml:space="preserve">
<path fill="#FFFFFF" d="M116.367,13.053c-3.458,0-6.917,0-10.375,0c0.058,0.657-0.044,1.514,0.188,2.125
	c-3.933-3.308-8.198-4.008-12.058-0.373c-2.325,2.189-3.686,5.204-4.382,8.279c-0.427,1.886,0.107,4.597-1.622,5.282
	c0.397-0.158-2.388,1.753-2.271,0.439c0.745-8.332,1.805-16.38,3.207-24.627c-3.234,0-6.469,0-9.703,0
	c-2.677,0-1.737,0.884-1.953,3.605c-0.176,2.226-0.462,4.445-0.844,6.645c-5.684-3.875-11.292-1.892-14.391,4.02
	c-1.844,3.015-2.473,6.635-2.294,10.127c-0.06,2.145-2.595,1.815-3.44,0.603c0.75-5.458,1.5-10.917,2.25-16.375
	c-3.497,0-6.993,0-10.49,0c-0.444,0-1.638,9.749-1.808,10.696c-0.235,1.31-0.293,4.186-1.667,4.97
	c-2.234,1.274-2.399-1.684-2.325-2.934c0.251-4.258,0.845-8.507,1.415-12.732c-2.684,0-5.367,0-8.051,0
	c-2.918,0-2.238,1.322-2.77,4.157c-0.579,3.089-1.158,6.179-1.736,9.268c-0.352,1.875-9.858,1.09-11.143,0.734
	c-7.794-2.155-9.426-14.955-0.625-16.954c1.718-0.39,10.337,1.434,10.538,1.023c1.249-2.549,2.497-5.097,3.745-7.646
	C19.901-4.689-0.48,2.023,0.009,19.861c0.205,7.466,4.333,13.879,11.702,16.03c4.982,1.455,17.726,2.06,19.556-4.348
	c3.236,6.054,7.83,5.301,12.997,3.51c2.458-1.958,7.056,1.153,9.505,0.825c2.608-0.35,5.203-1.587,7.221-3.27
	c4.188,3.972,9.09,5.002,13.94,0.57c2.825,4.382,7.441,3.148,11.811,2.026c2.834-0.728,3.085-2.05,5.389-0.609
	c2.708,1.693,6.249,2.601,9.016,0.498c0.18-0.137,3.004-3.878,3.285-1.915c0.287,2.01,2.974,3.245,4.731,3.156
	c2.538-0.128,7.269-0.652,7.269-3.911c0-0.762,0.572-2.202,0.25-2.808c-0.194-0.366-1.64-0.511-1.559-1.493
	C115.537,23.099,115.952,18.076,116.367,13.053z M71.822,27.858c-3.603-1.696-0.198-8.934,3.406-7.239
	C78.832,22.315,75.425,29.553,71.822,27.858C70.335,27.159,73.309,28.558,71.822,27.858z M105.434,25.653
	c-2.121,4.508-7.505,1.976-5.383-2.532C102.171,18.612,107.556,21.145,105.434,25.653C104.493,27.652,106.375,23.655,105.434,25.653
	z"/>
</svg>
